<svg width="93" height="41" viewBox="0 0 93 41" fill="none" xmlns="http://www.w3.org/2000/svg">
<path fill-rule="evenodd" clip-rule="evenodd" d="M93 0H0V20H12.2795L5.75 37.25H2.4C2 37.25 1.8 37.45 1.8 37.85V40.4C1.8 40.8 2 41 2.4 41H13.65C14.05 41 14.25 40.8 14.25 40.4V37.85C14.25 37.45 14.05 37.25 13.65 37.25H10.15L13.4 28.6H27.35L30.6 37.25H27.1C26.7 37.25 26.5 37.45 26.5 37.85V40.4C26.5 40.8 26.7 41 27.1 41H38.4C38.8 41 39 40.8 39 40.4V37.85C39 37.45 38.8 37.25 38.4 37.25H35L28.3875 20H45.1801V37.25H41.3801C40.9467 37.25 40.7301 37.45 40.7301 37.85V40.4C40.7301 40.8 40.9467 41 41.3801 41H52.8801C53.3134 41 53.5301 40.8 53.5301 40.4V37.85C53.5301 37.45 53.3134 37.25 52.8801 37.25H49.5301V20H52.7095L59.1301 35.95C59.5301 36.95 60.2634 37.45 61.3301 37.45C62.3967 37.45 63.1301 36.95 63.5301 35.95L69.9506 20H73.0801V37.25H69.7301C69.3301 37.25 69.1301 37.45 69.1301 37.85V40.4C69.1301 40.8 69.3301 41 69.7301 41H81.2801C81.6801 41 81.8801 40.8 81.8801 40.4V37.85C81.8801 37.45 81.6801 37.25 81.2801 37.25H77.4301V20H93V0ZM65.7605 20H69.9506L73.0301 12.35H73.0801V20H77.4301V8.85H81.2801C81.6801 8.85 81.8801 8.65 81.8801 8.25V5.7C81.8801 5.3 81.6801 5.1 81.2801 5.1H73.6301C72.4634 5.1 71.6634 5.66666 71.2301 6.8L65.7605 20ZM65.7605 20H56.8934L51.4301 6.8C50.9967 5.66666 50.2134 5.1 49.0801 5.1H41.3801C40.9467 5.1 40.7301 5.3 40.7301 5.7V8.25C40.7301 8.65 40.9467 8.85 41.3801 8.85H45.1801V20H49.5301V12.35H49.6301L52.7095 20H56.8934L58.8801 24.8L61.2301 31.1H61.4301C62.3634 28.5 63.1301 26.4333 63.7301 24.9L65.7605 20ZM24.0753 20H28.3875L23.5 7.25C23.2 6.48333 22.8333 5.93333 22.4 5.6C22 5.26666 21.4 5.1 20.6 5.1H13.8C13.3667 5.1 13.15 5.3 13.15 5.7V8.25C13.15 8.65 13.3667 8.85 13.8 8.85H16.5L12.2795 20H16.6421L14.7 25.15H26L24.0753 20ZM24.0753 20H16.6421L20.3 10.3H20.45L24.0753 20Z" fill="#336EC6"/>
</svg>
