<svg width="188" height="42" viewBox="0 0 188 42" fill="none" xmlns="http://www.w3.org/2000/svg">
<rect x="8" y="31" width="180" height="5" fill="#16D91D"/>
<ellipse cx="20" cy="21.5" rx="5" ry="4.5" fill="#16D91D"/>
<ellipse cx="61.5" cy="23" rx="5.5" ry="4" fill="#16D91D"/>
<path fill-rule="evenodd" clip-rule="evenodd" d="M0 0H93V20H77.4301V8.85H81.2801C81.6801 8.85 81.8801 8.65 81.8801 8.25V5.7C81.8801 5.3 81.6801 5.1 81.2801 5.1H73.6301C72.4634 5.1 71.6634 5.66666 71.2301 6.8L65.7605 20H56.8934L51.4301 6.8C50.9967 5.66666 50.2134 5.1 49.0801 5.1H41.3801C40.9467 5.1 40.7301 5.3 40.7301 5.7V8.25C40.7301 8.65 40.9467 8.85 41.3801 8.85H45.1801V20H28.3875L23.5 7.25C23.2 6.48333 22.8333 5.93333 22.4 5.6C22 5.26666 21.4 5.1 20.6 5.1H13.8C13.3667 5.1 13.15 5.3 13.15 5.7V8.25C13.15 8.65 13.3667 8.85 13.8 8.85H16.5L12.2795 20H0V0ZM16.6421 20H12.2795L5.75 37.25H2.4C2 37.25 1.8 37.45 1.8 37.85V40.4C1.8 40.8 2 41 2.4 41H13.65C14.05 41 14.25 40.8 14.25 40.4V37.85C14.25 37.45 14.05 37.25 13.65 37.25H10.15L13.4 28.6H27.35L30.6 37.25H27.1C26.7 37.25 26.5 37.45 26.5 37.85V40.4C26.5 40.8 26.7 41 27.1 41H38.4C38.8 41 39 40.8 39 40.4V37.85C39 37.45 38.8 37.25 38.4 37.25H35L28.3875 20H24.0753L20.45 10.3H20.3L16.6421 20ZM16.6421 20H24.0753L26 25.15H14.7L16.6421 20ZM49.5301 20V37.25H52.8801C53.3134 37.25 53.5301 37.45 53.5301 37.85V40.4C53.5301 40.8 53.3134 41 52.8801 41H41.3801C40.9467 41 40.7301 40.8 40.7301 40.4V37.85C40.7301 37.45 40.9467 37.25 41.3801 37.25H45.1801V20H49.5301ZM52.7095 20H56.8934L58.8801 24.8L61.2301 31.1H61.4301C62.3634 28.5 63.1301 26.4333 63.7301 24.9L65.7605 20H69.9506L63.5301 35.95C63.1301 36.95 62.3967 37.45 61.3301 37.45C60.2634 37.45 59.5301 36.95 59.1301 35.95L52.7095 20ZM52.7095 20H49.5301V12.35H49.6301L52.7095 20ZM69.9506 20L73.0301 12.35H73.0801V20H69.9506ZM73.0801 20H77.4301V37.25H81.2801C81.6801 37.25 81.8801 37.45 81.8801 37.85V40.4C81.8801 40.8 81.6801 41 81.2801 41H69.7301C69.3301 41 69.1301 40.8 69.1301 40.4V37.85C69.1301 37.45 69.3301 37.25 69.7301 37.25H73.0801V20ZM177.719 36H188V41H175.423C176.13 40.8378 176.701 40.5628 177.137 40.175C177.904 39.4917 178.288 38.7083 178.288 37.825C178.288 37.0805 178.098 36.4722 177.719 36ZM174.07 36C173.869 35.9373 173.658 35.879 173.438 35.825C172.704 35.6417 171.971 35.4333 171.238 35.2C170.504 34.9667 169.879 34.5917 169.363 34.075C168.846 33.5417 168.587 32.875 168.587 32.075C168.587 30.9917 168.979 30.1333 169.762 29.5C170.546 28.85 171.546 28.525 172.762 28.525C174.413 28.525 175.596 29.0083 176.312 29.975H176.363C176.329 29.375 176.312 29.0667 176.312 29.05C176.312 28.8333 176.421 28.725 176.637 28.725H177.438C177.654 28.725 177.762 28.8333 177.762 29.05V32.525C177.762 32.7417 177.654 32.85 177.438 32.85H176.462C176.229 32.85 176.113 32.7417 176.113 32.525V32.175C176.113 31.725 175.846 31.2833 175.312 30.85C174.796 30.4 174.121 30.175 173.288 30.175C172.454 30.175 171.804 30.35 171.337 30.7C170.871 31.05 170.637 31.5083 170.637 32.075C170.637 32.625 170.896 33.0583 171.413 33.375C171.946 33.675 172.587 33.9167 173.337 34.1C174.087 34.2667 174.837 34.4583 175.587 34.675C176.337 34.8917 176.971 35.25 177.488 35.75C177.571 35.8286 177.649 35.9119 177.719 36H174.07ZM168.562 41C168.346 41 168.238 40.8917 168.238 40.675V36.925C168.238 36.7083 168.346 36.6 168.562 36.6H169.538C169.771 36.6 169.887 36.7083 169.887 36.925V37.425C170.054 37.925 170.404 38.3833 170.938 38.8C171.571 39.3 172.363 39.55 173.312 39.55C175.179 39.55 176.113 38.9 176.113 37.6C176.113 37.15 175.854 36.7917 175.337 36.525C174.973 36.3251 174.55 36.1501 174.07 36H156.914C156.86 35.7166 156.826 35.4166 156.81 35.1H165.81C166.044 35.1 166.16 34.9917 166.16 34.775V34.575C166.16 32.725 165.677 31.2583 164.71 30.175C163.744 29.075 162.41 28.525 160.71 28.525C159.027 28.525 157.602 29.0917 156.435 30.225C155.269 31.3417 154.685 32.875 154.685 34.825C154.685 35.2342 154.711 35.6259 154.764 36H152.109C152.038 35.9119 151.961 35.8286 151.877 35.75C151.36 35.25 150.727 34.8917 149.977 34.675C149.227 34.4583 148.477 34.2667 147.727 34.1C146.977 33.9167 146.335 33.675 145.802 33.375C145.285 33.0583 145.027 32.625 145.027 32.075C145.027 31.5083 145.26 31.05 145.727 30.7C146.194 30.35 146.844 30.175 147.677 30.175C148.51 30.175 149.185 30.4 149.702 30.85C150.235 31.2833 150.502 31.725 150.502 32.175V32.525C150.502 32.7417 150.619 32.85 150.852 32.85H151.827C152.044 32.85 152.152 32.7417 152.152 32.525V29.05C152.152 28.8333 152.044 28.725 151.827 28.725H151.027C150.81 28.725 150.702 28.8333 150.702 29.05C150.702 29.0667 150.719 29.375 150.752 29.975H150.702C149.985 29.0083 148.802 28.525 147.152 28.525C145.935 28.525 144.935 28.85 144.152 29.5C143.369 30.1333 142.977 30.9917 142.977 32.075C142.977 32.875 143.235 33.5417 143.752 34.075C144.269 34.5917 144.894 34.9667 145.627 35.2C146.36 35.4333 147.094 35.6417 147.827 35.825C148.048 35.879 148.259 35.9373 148.459 36H135.877V35.125C135.877 33.9583 136.302 32.9167 137.152 32C138.002 31.0833 139.144 30.625 140.577 30.625H141.102C141.319 30.625 141.427 30.5167 141.427 30.3V28.975C141.427 28.7583 141.319 28.65 141.102 28.65C140.252 28.65 139.486 28.775 138.802 29.025C138.136 29.275 137.619 29.5583 137.252 29.875C136.902 30.175 136.577 30.5583 136.277 31.025C135.977 31.4917 135.802 31.8583 135.752 32.125H135.677V29C135.677 28.8 135.569 28.7 135.352 28.7H132.427C132.211 28.7 132.102 28.8 132.102 29V30.075C132.102 30.275 132.211 30.375 132.427 30.375H133.802V36H128.541V29C128.541 28.8 128.441 28.7 128.241 28.7H125.141C124.941 28.7 124.841 28.8 124.841 29V30.075C124.841 30.275 124.941 30.375 125.141 30.375H126.491V36H120.416V29.75C120.416 29.05 120.057 28.7 119.341 28.7H116.941C116.741 28.7 116.641 28.8 116.641 29V30.075C116.641 30.275 116.741 30.375 116.941 30.375H118.366V36H115.394C115.448 35.6253 115.475 35.2336 115.475 34.825C115.475 32.9083 114.884 31.3833 113.7 30.25C112.534 29.1 111.05 28.525 109.25 28.525C107.467 28.525 105.984 29.0917 104.8 30.225C103.617 31.3583 103.025 32.8917 103.025 34.825C103.025 35.2337 103.052 35.6254 103.105 36H100.99L100.652 35.775C100.469 35.625 100.311 35.675 100.177 35.925C100.163 35.95 100.148 35.975 100.132 36H88.7398C88.1148 34.9125 87.8023 33.5792 87.8023 32C87.8023 29.75 88.419 28.0167 89.6523 26.8C90.9023 25.5667 92.3023 24.95 93.8523 24.95C95.4023 24.95 96.694 25.3667 97.7273 26.2C98.7773 27.0167 99.3023 27.8083 99.3023 28.575V28.8C99.3023 29.0167 99.4023 29.125 99.6023 29.125H101.177C101.394 29.125 101.502 29.0167 101.502 28.8V23.35C101.502 23.15 101.394 23.05 101.177 23.05H99.7773C99.544 23.05 99.444 23.15 99.4773 23.35L99.5023 25.575C98.3357 23.7917 96.4607 22.9 93.8773 22.9C91.5607 22.9 89.5773 23.7167 87.9273 25.35C86.294 26.9833 85.4773 29.1833 85.4773 31.95C85.4773 33.4578 85.7204 34.8078 86.2064 36H84V41H92.1723C92.7549 41.1167 93.3649 41.175 94.0023 41.175C94.6855 41.175 95.3375 41.1167 95.9584 41H107.613C108.126 41.1167 108.672 41.175 109.25 41.175C109.825 41.175 110.367 41.1167 110.876 41H121.295C121.727 41.1167 122.201 41.175 122.716 41.175C123.262 41.175 123.759 41.1167 124.206 41H127.766C127.049 41 126.691 40.65 126.691 39.95V39.025H126.616C126.127 40.0494 125.324 40.7077 124.206 41H121.295C120.606 40.8144 120.022 40.481 119.541 40C118.774 39.2 118.382 38.1417 118.366 36.825V36H120.416V36.325C120.416 37.2917 120.649 38.0417 121.116 38.575C121.582 39.1083 122.266 39.375 123.166 39.375C124.382 39.375 125.341 38.925 126.041 38.025C126.341 37.6417 126.491 37.3833 126.491 37.25V36H128.541V39.325H129.941C130.157 39.325 130.266 39.425 130.266 39.625V40.7C130.266 40.9 130.157 41 129.941 41H132.427C132.211 41 132.102 40.9 132.102 40.7V39.625C132.102 39.425 132.211 39.325 132.427 39.325H133.802V36H135.877V39.325H137.202C137.419 39.325 137.527 39.425 137.527 39.625V40.7C137.527 40.9 137.419 41 137.202 41H142.952C142.735 41 142.627 40.8917 142.627 40.675V36.925C142.627 36.7083 142.735 36.6 142.952 36.6H143.927C144.16 36.6 144.277 36.7083 144.277 36.925V37.425C144.444 37.925 144.794 38.3833 145.327 38.8C145.96 39.3 146.752 39.55 147.702 39.55C149.569 39.55 150.502 38.9 150.502 37.6C150.502 37.15 150.244 36.7917 149.727 36.525C149.363 36.3251 148.94 36.1501 148.459 36H152.109C152.488 36.4722 152.677 37.0805 152.677 37.825C152.677 38.7083 152.294 39.4917 151.527 40.175C151.091 40.5628 150.519 40.8378 149.812 41H146.493C146.08 40.8962 145.716 40.7462 145.402 40.55C144.735 40.1333 144.319 39.7417 144.152 39.375H144.102C144.135 40.1917 144.152 40.625 144.152 40.675C144.152 40.8917 144.035 41 143.802 41H146.493C146.958 41.1167 147.486 41.175 148.077 41.175C148.726 41.175 149.304 41.1167 149.812 41H159.249C159.749 41.1167 160.278 41.175 160.835 41.175C161.398 41.175 161.934 41.1167 162.442 41H168.562ZM169.413 41H172.104C172.569 41.1167 173.097 41.175 173.688 41.175C174.336 41.175 174.914 41.1167 175.423 41H172.104C171.69 40.8962 171.326 40.7462 171.012 40.55C170.346 40.1333 169.929 39.7417 169.762 39.375H169.712C169.746 40.1917 169.762 40.625 169.762 40.675C169.762 40.8917 169.646 41 169.413 41ZM162.442 41C162.627 40.9577 162.808 40.9077 162.985 40.85C163.669 40.6333 164.219 40.3667 164.635 40.05C165.069 39.7333 165.402 39.45 165.635 39.2C165.869 38.95 166.019 38.7667 166.085 38.65C166.169 38.5333 166.21 38.4417 166.21 38.375C166.21 38.2917 166.16 38.2 166.06 38.1L165.385 37.425C165.219 37.3083 165.069 37.3333 164.935 37.5C164.685 37.9167 164.194 38.3417 163.46 38.775C162.744 39.2083 161.877 39.425 160.86 39.425C159.844 39.425 158.927 39.05 158.11 38.3C157.493 37.7216 157.095 36.955 156.914 36H154.764C154.958 37.3934 155.516 38.5434 156.435 39.45C157.242 40.2337 158.18 40.7504 159.249 41H162.442ZM110.876 41C111.978 40.7477 112.927 40.2227 113.725 39.425C114.641 38.5092 115.197 37.3676 115.394 36H113.289C113.363 35.6322 113.4 35.2406 113.4 34.825C113.4 33.4583 112.992 32.3583 112.175 31.525C111.375 30.6917 110.409 30.275 109.275 30.275C108.142 30.275 107.167 30.6917 106.35 31.525C105.534 32.3583 105.125 33.4583 105.125 34.825C105.125 35.2406 105.162 35.6322 105.236 36H103.105C103.301 37.3821 103.857 38.5321 104.775 39.45C105.57 40.2337 106.516 40.7504 107.613 41H110.876ZM105.236 36H113.289C113.12 36.8418 112.757 37.5585 112.2 38.15C111.4 39 110.417 39.425 109.25 39.425C108.1 39.425 107.125 39 106.325 38.15C105.768 37.5585 105.405 36.8418 105.236 36ZM95.9584 41C96.2464 40.9459 96.5277 40.8792 96.8023 40.8C97.6857 40.55 98.394 40.2667 98.9273 39.95C99.4607 39.6167 99.9523 39.225 100.402 38.775C100.852 38.325 101.161 37.975 101.327 37.725C101.511 37.4583 101.636 37.25 101.702 37.1C101.786 36.9333 101.827 36.8083 101.827 36.725C101.827 36.625 101.786 36.5417 101.702 36.475L100.99 36H100.132C99.7475 36.6244 99.1626 37.241 98.3773 37.85C97.3273 38.6667 95.894 39.075 94.0773 39.075C92.394 39.075 90.9273 38.4583 89.6773 37.225C89.3112 36.8589 88.9987 36.4505 88.7398 36H86.2064C86.6068 36.9821 87.1721 37.8571 87.9023 38.625C89.1078 39.8797 90.5311 40.6713 92.1723 41H95.9584ZM163.11 31.1C163.71 31.7167 164.035 32.5417 164.085 33.575H156.86C156.994 32.4417 157.419 31.5917 158.135 31.025C158.852 30.4583 159.71 30.175 160.71 30.175C161.71 30.175 162.51 30.4833 163.11 31.1Z" fill="#336EC6"/>
</svg>
